# xmcd
#
# Track frame offsets: 
#        150
#        14670
#        28538
#        40566
#        59464
#        72928
#        87730
#        108809
#        122102
#        136733
#        149404
#        170118
#
# Disc length: 2431 seconds
#
# Revision: 2
# Processed by: cddbd v1.5.2PL0 Copyright (c) Steve Scherf et al.
# Submitted via: ExactAudioCopy v1.3
#
DISCID=aa097d0c
DTITLE=AnnenMayKantereit - Alles Nix Konkretes
DYEAR=2016
DGENRE=Rock
TTITLE0=Oft Gefragt
TTITLE1=Pocahontas
TTITLE2=Es Geht Mir Gut
TTITLE3=3. Stock
TTITLE4=Wohin Du Gehst
TTITLE5=Mir W‰r' Lieber, Du Weinst
TTITLE6=Bitte Bleib
TTITLE7=Neues Zimmer
TTITLE8=Barfuﬂ Am Klavier
TTITLE9=21, 22, 23
TTITLE10=L‰nger Bleiben
TTITLE11=Das Krokodil
EXTD=
EXTT0=
EXTT1=
EXTT2=
EXTT3=
EXTT4=
EXTT5=
EXTT6=
EXTT7=
EXTT8=
EXTT9=
EXTT10=
EXTT11=
PLAYORDER=
